<svg width="25" height="25" viewBox="0 0 25 25" fill="none" xmlns="http://www.w3.org/2000/svg">
<circle cx="12.5" cy="12.5" r="12.5" fill="#FFF3F3"/>
<path d="M17.9327 8.03933H16.3709C16.35 8.03209 16.3283 8.02739 16.3063 8.02522H14.6433V6.64606C14.6434 6.54241 14.6028 6.44291 14.5304 6.36888C14.4579 6.29486 14.3593 6.25216 14.2558 6.25H10.323C10.2179 6.25 10.1172 6.29167 10.043 6.36597C9.9687 6.44027 9.92694 6.54099 9.92694 6.64606V8.02522H8.27248C8.25047 8.02738 8.22874 8.03209 8.20786 8.03933H6.64605C6.5045 8.03933 6.37376 8.11476 6.30305 8.23731C6.23232 8.35986 6.23232 8.5108 6.30305 8.63335C6.37377 8.7559 6.5045 8.83143 6.64605 8.83143H7.91848L8.94665 18.3961C8.95765 18.4934 9.00411 18.5833 9.07719 18.6486C9.15017 18.7139 9.2447 18.7499 9.34269 18.75H15.2416C15.3386 18.7486 15.4317 18.7118 15.5036 18.6467C15.5755 18.5816 15.6211 18.4925 15.632 18.3961L16.6601 8.84539H17.9326C18.0742 8.84539 18.2049 8.76996 18.2756 8.64741C18.3463 8.52486 18.3463 8.37382 18.2756 8.25136C18.2049 8.12881 18.0742 8.05329 17.9326 8.05329L17.9327 8.03933ZM10.7276 7.0421H13.8511V8.02522H10.7276V7.0421ZM14.8821 17.9522H9.6966L8.71348 8.84548H15.8651L14.8821 17.9522Z" fill="#E41D1D"/>
<path d="M12.2896 17.0254C12.3947 17.0254 12.4954 16.9836 12.5697 16.9094C12.644 16.8351 12.6857 16.7344 12.6857 16.6293V10.1687C12.6857 10.0271 12.6102 9.8964 12.4877 9.82568C12.3651 9.75486 12.2141 9.75486 12.0915 9.82568C11.969 9.89641 11.8936 10.0271 11.8936 10.1687V16.6293C11.8936 16.7344 11.9352 16.8351 12.0095 16.9094C12.0838 16.9836 12.1845 17.0254 12.2896 17.0254H12.2896Z" fill="#E41D1D"/>
<path d="M10.7303 17.0225H10.7471C10.8517 17.0181 10.9503 16.9725 11.0214 16.8957C11.0924 16.8188 11.1302 16.717 11.1264 16.6124L10.8876 10.1518L10.8877 10.1517C10.8855 10.0459 10.8403 9.94542 10.7623 9.87375C10.6842 9.80217 10.5804 9.76559 10.4747 9.77246C10.3701 9.77688 10.2715 9.82249 10.2005 9.89933C10.1294 9.97617 10.0917 10.078 10.0955 10.1826L10.3343 16.6433C10.3393 16.7451 10.3831 16.8412 10.4568 16.9118C10.5305 16.9822 10.6284 17.0219 10.7303 17.0225L10.7303 17.0225Z" fill="#E41D1D"/>
<path d="M13.8342 17.0225H13.8482C13.9526 17.0248 14.0537 16.9861 14.1299 16.9147C14.206 16.8432 14.2511 16.7447 14.2556 16.6404L14.4944 10.1798H14.4943C14.4981 10.0752 14.4603 9.97336 14.3893 9.89651C14.3182 9.81967 14.2196 9.77405 14.115 9.76963C14.0081 9.75863 13.9014 9.79315 13.8212 9.86481C13.741 9.93639 13.6947 10.0385 13.6937 10.1461L13.4521 16.6068H13.4522C13.4468 16.7128 13.4842 16.8165 13.5561 16.8947C13.6279 16.9728 13.7281 17.0189 13.8342 17.0225L13.8342 17.0225Z" fill="#E41D1D"/>
</svg>
